<svg xmlns="http://www.w3.org/2000/svg" viewBox="0 0 104.75 104.75">
  <defs>
    <style>
      .\31 a4aae08-7df2-4924-9f4b-09d151be5825 {
        fill: none;
        stroke: #3f3d3c;
        stroke-miterlimit: 10;
      }

      .\32 849f679-d3a3-42e3-8449-74b1afdd42ea {
        fill: #3f3d3c;
      }
    </style>
  </defs>
  <title>back_proj</title>
  <g id="73161289-0638-4c21-9763-d809b88ba755" data-name="Livello 2">
    <g id="cb669ccd-5dfe-4958-a2c0-3222c0ee0ff3" data-name="Livello 2">
      <circle class="1a4aae08-7df2-4924-9f4b-09d151be5825" cx="52.37" cy="52.37" r="51.87"/>
      <path class="2849f679-d3a3-42e3-8449-74b1afdd42ea" d="M97.3,26.44a51.88,51.88,0,1,0-19,70.86A51.88,51.88,0,0,0,97.3,26.44Zm-23.64,5a2.75,2.75,0,1,1,0,3.88A2.75,2.75,0,0,1,73.66,31.47ZM57.59,23.15a1.8,1.8,0,1,1-1.8,1.8A1.8,1.8,0,0,1,57.59,23.15ZM19.43,52.38a8,8,0,1,1,8,8A8,8,0,0,1,19.43,52.38Zm20.78,24a6.92,6.92,0,1,1,0-9.79A6.92,6.92,0,0,1,40.21,76.42ZM41.9,39.75a9.13,9.13,0,1,1,0-12.92A9.13,9.13,0,0,1,41.9,39.75ZM54.41,85.32a5.81,5.81,0,1,1,5.81-5.81A5.81,5.81,0,0,1,54.41,85.32ZM77.05,75.14a4.94,4.94,0,1,1,0-7A4.94,4.94,0,0,1,77.05,75.14Zm4.49-18.81a3.78,3.78,0,1,1,3.78-3.78A3.78,3.78,0,0,1,81.54,56.33Z"/>
    </g>
  </g>
</svg>
